<?xml version="1.0" standalone="no"?>
<!DOCTYPE svg PUBLIC "-//W3C//DTD SVG 20010904//EN"
 "http://www.w3.org/TR/2001/REC-SVG-20010904/DTD/svg10.dtd">
<svg version="1.0" xmlns="http://www.w3.org/2000/svg"
 width="59.000000pt" height="74.000000pt" viewBox="0 0 59.000000 74.000000"
 preserveAspectRatio="xMidYMid meet">

<g transform="translate(0.000000,74.000000) scale(0.100000,-0.100000)"
fill="#000000" stroke="none">
<path d="M142 434 c-12 -8 -22 -25 -22 -38 0 -23 28 -56 46 -56 5 0 20 -7 32
-16 18 -13 21 -19 11 -30 -15 -19 -58 -18 -65 1 -8 19 -44 20 -44 1 0 -22 40
-46 75 -46 47 0 77 26 73 63 -2 26 -11 36 -43 53 -22 11 -40 27 -40 35 0 21
34 23 55 4 10 -9 26 -15 35 -13 15 3 14 6 -5 31 -25 31 -72 37 -108 11z"/>
<path d="M303 350 c-20 -98 -20 -100 -1 -100 19 0 22 5 32 53 6 24 11 27 46
27 27 0 38 -4 36 -12 -3 -7 -7 -26 -11 -41 -5 -25 -3 -28 17 -25 19 3 24 14
40 88 22 108 22 110 -2 110 -15 0 -21 -9 -26 -40 -6 -39 -8 -40 -46 -40 l-40
0 7 40 c6 35 4 40 -13 40 -16 0 -22 -14 -39 -100z"/>
</g>
</svg>
